<?xml version="1.0" encoding="UTF-8"?>
<svg width="188px" height="37px" viewBox="0 0 188 37" version="1.1" xmlns="http://www.w3.org/2000/svg" xmlns:xlink="http://www.w3.org/1999/xlink">
    <!-- Generator: Sketch 50.2 (55047) - http://www.bohemiancoding.com/sketch -->
    <title>Artboard</title>
    <desc>Created with Sketch.</desc>
    <defs></defs>
    <g id="Artboard" stroke="none" stroke-width="1" fill="none" fill-rule="evenodd">
        <g id="logo" transform="translate(0.000000, -3.000000)">
            <g id="Group_4926" transform="translate(121.663000, 32.620000)" fill="#FFFFFF" fill-rule="nonzero">
                <path d="M3.079,6.637 C2.26813954,6.62445514 1.4986069,6.27697098 0.953,5.677 C0.353654487,5.052232 0.0131526803,4.2236657 0,3.358 C0.0431114467,2.53605903 0.351926569,1.7503351 0.88,1.119 C1.35393999,0.410592303 2.15373656,-0.0103730582 3.006,1.42108818e-14 C3.84925061,0.0254146365 4.63366203,0.438282173 5.132,1.119 C5.6719315,1.74323241 5.9824094,2.53318698 6.012,3.358 C6.06243068,4.35860256 5.65817729,5.3284432 4.912,5.997 C4.40656177,6.43901663 3.74971849,6.66835635 3.079,6.637 Z" id="Path_13518"></path>
            </g>
            <g id="Group_4929" transform="translate(0.327000, 0.274000)">
                <g id="Group_4927" transform="translate(25.440000, 4.999000)" fill-rule="nonzero">
                    <path d="M2.053,33.584 L2.053,12.714 L0,12.714 L0,8.4 L2.053,8.4 L2.053,7.2 C1.99724028,6.01000318 2.24972475,4.82577179 2.786,3.762 C3.25282765,2.79893952 3.95988088,1.97237948 4.839,1.362 C5.24314941,1.0614282 5.68748295,0.819064451 6.159,0.642 C6.9939143,0.283142989 7.89131307,0.0921781604 8.8,0.08 C9.313,0.08 9.826,-4.4408921e-16 10.486,-4.4408921e-16 L10.486,4.318 C9.39614614,4.19607493 8.2996585,4.48096942 7.407,5.118 C6.7578777,5.64043572 6.40258568,6.44534177 6.454,7.277 L6.454,8.4 L10.486,8.4 L10.486,12.718 L6.452,12.718 L6.452,33.668 L2.052,33.668 L2.053,33.584 Z" id="Path_13519" stroke="#1B75BC" stroke-width="0.5" fill="#0078C3"></path>
                    <path d="M36.511,20.87 C36.4963984,22.4820827 36.1985325,24.0790498 35.631,25.588 C35.0656646,27.1496769 34.2485293,28.6082921 33.212,29.906 C32.1374248,31.223817 30.7857249,32.2887203 29.253,33.025 C27.6167507,33.8473651 25.804963,34.259213 23.974,34.225 C22.1439129,34.2507857 20.3341025,33.8393872 18.695,33.025 C17.1867671,32.2500213 15.8424666,31.1909475 14.736,29.906 C12.5954784,27.3464759 11.4043643,24.1263703 11.364,20.79 C11.3453996,19.0900963 11.6695164,17.4038726 12.317,15.832 C12.9149787,14.2866907 13.8117434,12.8744307 14.956,11.676 C16.0724785,10.4641753 17.4180708,9.48565539 18.915,8.797 C20.4718192,8.05390708 22.175936,7.67077131 23.901,7.676 C25.5954444,7.6515917 27.2738472,8.00695386 28.813,8.716 C30.3099292,9.40465539 31.6555215,10.3831753 32.772,11.595 C33.8931012,12.8421933 34.7863478,14.2766682 35.411,15.833 C36.1397769,17.4119693 36.515178,19.1309651 36.511,20.87 Z M32.185,20.87 C32.1752158,19.7520839 31.9767602,18.6438426 31.598,17.592 C31.2009141,16.5687956 30.6305789,15.6216197 29.912,14.792 C29.1981943,13.9613098 28.3258359,13.2813734 27.346,12.792 C25.2000459,11.8324529 22.7469541,11.8324529 20.601,12.792 C19.6211641,13.2813734 18.7488057,13.9613098 18.035,14.792 C17.2982713,15.6399266 16.7264598,16.6180431 16.349,17.676 C15.9702398,18.7278426 15.7717842,19.8360839 15.762,20.954 C15.7786654,22.0973502 15.9767996,23.2307996 16.349,24.312 C16.7351263,25.3643849 17.3060892,26.3393565 18.035,27.191 C18.7425135,28.0282632 19.6163263,28.7093332 20.601,29.191 C21.6315216,29.6800383 22.760431,29.9263458 23.901,29.911 C25.0178209,29.9263753 26.1227001,29.6797811 27.127,29.191 C29.1160492,28.168661 30.6377111,26.4229727 31.379,24.313 C31.9310941,23.2506946 32.2081994,22.0669806 32.185,20.87 Z" id="Path_13520" stroke="#1B75BC" stroke-width="0.5" fill="#0078C3"></path>
                    <path d="M40.69,33.584 L40.69,8.396 L44.722,8.396 L44.722,10.635 L44.795,10.635 C45.1827357,9.9719232 45.7078148,9.39945068 46.335,8.956 C46.8437527,8.57031758 47.4136842,8.27284447 48.021,8.076 C48.608,7.916 49.121,7.756 49.561,7.676 C50.001,7.596 54.033,7.596 54.326,7.596 L54.326,12.474 C53.959,12.474 49.854,12.554 49.267,12.714 C48.6733596,12.8718459 48.1055353,13.1143331 47.581,13.434 C46.7990364,13.9551594 46.1670962,14.6719099 45.748,15.513 C45.1779833,16.8496088 44.9270239,18.3005855 45.015,19.751 L45.015,33.584 L40.69,33.584 Z" id="Path_13521" stroke="#1B75BC" stroke-width="0.5" fill="#0078C3"></path>
                    <path d="M88.785,33.584 L88.785,19.59 C88.785,19.03 88.712,18.311 88.638,17.511 C88.5666014,16.6520916 88.3431267,15.8127073 87.978,15.032 C87.6212148,14.2158683 87.0668819,13.5013871 86.365,12.953 C85.4636369,12.3284803 84.3812525,12.0191272 83.286,12.073 C82.1438806,12.0105365 81.0122011,12.3192402 80.06,12.953 C79.3581481,13.501417 78.8038216,14.2158899 78.447,15.032 C78.0711633,15.8050228 77.8707216,16.6515219 77.86,17.511 C77.787,18.391 77.787,19.03 77.787,19.59 L77.787,33.664 L73.461,33.664 L73.461,19.59 C73.461,18.55 73.461,17.59 73.388,16.871 C73.2934132,16.011526 72.9914179,15.1879026 72.508,14.471 C72.0361651,13.6826602 71.3497791,13.0448311 70.529,12.632 C69.7881342,12.3129939 68.9896234,12.1496157 68.183,12.152 C67.0189111,12.1011438 65.8671985,12.4082671 64.883,13.032 C64.1538548,13.6039157 63.5751439,14.3449815 63.197,15.191 C62.8414804,15.9751694 62.6184554,16.8128648 62.537,17.67 C62.464,18.55 62.464,19.189 62.464,19.67 L62.464,33.744 L58.139,33.744 L58.139,8.396 L62.171,8.396 L62.171,11.115 L62.244,11.115 C62.464,10.875 62.684,10.555 63.05,10.155 C63.414177,9.72869231 63.8331439,9.35242905 64.296,9.036 C65.649358,8.09785466 67.2692213,7.62125922 68.915,7.677 C69.6301455,7.68183381 70.3427748,7.76228114 71.041,7.917 C71.7547775,8.10087295 72.4440045,8.36944656 73.094,8.717 C73.760879,9.05533677 74.3579777,9.51639196 74.854,10.076 C75.3783876,10.6075726 75.8007222,11.2309059 76.1,11.915 C76.32,11.595 76.54,11.195 76.906,10.715 C77.3117465,10.1818938 77.7793526,9.6988463 78.299,9.276 C78.9596441,8.75514528 79.7034104,8.34945456 80.499,8.076 C83.2507241,7.24381154 86.217085,7.50160029 88.784,8.796 C90.146417,9.57578014 91.2444713,10.745227 91.937,12.154 C92.8667183,14.0699787 93.3195755,16.1822833 93.257,18.311 L93.257,33.504 L88.785,33.504 L88.785,33.584 Z" id="Path_13522" stroke="#1B75BC" stroke-width="0.5" fill="#0078C3"></path>
                    <polygon id="Path_13523" fill="#FFFFFF" points="109.533 33.584 105.207 33.584 105.207 8.396 109.533 8.396"></polygon>
                    <path d="M138.638,20.87 C138.623398,22.4820827 138.325533,24.0790498 137.758,25.588 C137.192681,27.1496844 136.375544,28.6083021 135.339,29.906 C134.264425,31.223817 132.912725,32.2887203 131.38,33.025 C129.743751,33.8473651 127.931963,34.259213 126.101,34.225 C124.270913,34.2507857 122.461103,33.8393872 120.822,33.025 C119.313767,32.2500213 117.969467,31.1909475 116.863,29.906 C114.722478,27.3464759 113.531364,24.1263703 113.491,20.79 C113.4724,19.0900963 113.796516,17.4038726 114.444,15.832 C115.041746,14.2859793 115.938522,12.8730208 117.083,11.674 C118.199478,10.4621753 119.545071,9.48365539 121.042,8.795 C122.598676,8.05274383 124.302427,7.67029698 126.027,7.676 C127.721441,7.65162562 129.399837,8.0069862 130.939,8.716 C132.435929,9.40465539 133.781522,10.3831753 134.898,11.595 C136.019101,12.8421933 136.912348,14.2766682 137.537,15.833 C138.300205,17.4002532 138.677696,19.1272468 138.638,20.87 Z M134.312,20.87 C134.302216,19.7520839 134.10376,18.6438426 133.725,17.592 C133.338874,16.5396151 132.767911,15.5646435 132.039,14.713 C131.325176,13.8823293 130.452822,13.2023962 129.473,12.713 C127.327046,11.7534529 124.873954,11.7534529 122.728,12.713 C121.748164,13.2023734 120.875806,13.8823098 120.162,14.713 C119.425786,15.5594208 118.853999,16.5358013 118.476,17.592 C118.097221,18.6438376 117.898765,19.7520821 117.889,20.87 C117.905564,22.0133597 118.103701,23.1468251 118.476,24.228 C118.862107,25.2803941 119.433072,26.255369 120.162,27.107 C120.869514,27.9442632 121.743326,28.6253332 122.728,29.107 C123.758522,29.5960383 124.887431,29.8423458 126.028,29.827 C127.144821,29.8423753 128.2497,29.5957811 129.254,29.107 C131.243049,28.084661 132.764711,26.3389727 133.506,24.229 C134.065503,23.1997417 134.343527,22.0410772 134.312,20.87 Z" id="Path_13524" fill="#FFFFFF"></path>
                </g>
                <g id="_" transform="translate(0.000000, 0.759000)" fill="#FFFFFF" font-family="Helvetica" font-size="33" font-weight="normal">
                    <text id="&lt;">
                        <tspan x="0" y="32">&lt;</tspan>
                    </text>
                </g>
                <g id="_2" transform="translate(168.037000, 3.258000)" fill="#FFFFFF" font-family="Helvetica" font-size="33" font-weight="normal">
                    <text id="&gt;">
                        <tspan x="0" y="32">&gt;</tspan>
                    </text>
                </g>
                <g id="Group_4928" transform="translate(129.767000, 2.000000)" fill="#FFFFFF" fill-rule="nonzero">
                    <path d="M3.153,7.957 C2.30240613,7.95074329 1.49770121,7.57033732 0.953,6.917 C0.334550368,6.27186371 -0.00741981965,5.41065862 1.1100875e-16,4.517 C0.0372727871,3.65646441 0.374412016,2.83608049 0.953,2.198 C1.46066328,1.47859017 2.27329633,1.03533577 3.153,0.998 C4.04164284,1.00191519 4.86859588,1.45298048 5.353,2.198 C5.91419578,2.84692054 6.24873849,3.66098616 6.306,4.517 C6.38120119,5.56028893 5.9435236,6.57482037 5.133,7.236 C4.57984048,7.70431712 3.87777415,7.95996855 3.153,7.957 Z" id="Path_13525"></path>
                </g>
            </g>
        </g>
    </g>
</svg>